<svg width="24" height="24" viewBox="0 0 24 24" fill="none" xmlns="http://www.w3.org/2000/svg">
<path d="M12 4C7.576 4 4 7.576 4 12C4 16.424 7.576 20 12 20C16.424 20 20 16.424 20 12C20 7.576 16.424 4 12 4ZM15.44 15.44C15.366 15.5142 15.2781 15.573 15.1813 15.6131C15.0845 15.6533 14.9808 15.674 14.876 15.674C14.7712 15.674 14.6675 15.6533 14.5707 15.6131C14.4739 15.573 14.386 15.5142 14.312 15.44L12 13.128L9.688 15.44C9.53842 15.5896 9.33554 15.6736 9.124 15.6736C8.91246 15.6736 8.70958 15.5896 8.56 15.44C8.41042 15.2904 8.32638 15.0875 8.32638 14.876C8.32638 14.7713 8.34701 14.6675 8.3871 14.5708C8.42718 14.474 8.48593 14.3861 8.56 14.312L10.872 12L8.56 9.688C8.41042 9.53842 8.32638 9.33554 8.32638 9.124C8.32638 8.91246 8.41042 8.70958 8.56 8.56C8.70958 8.41042 8.91246 8.32638 9.124 8.32638C9.33554 8.32638 9.53842 8.41042 9.688 8.56L12 10.872L14.312 8.56C14.3861 8.48593 14.474 8.42718 14.5708 8.3871C14.6675 8.34701 14.7713 8.32638 14.876 8.32638C14.9807 8.32638 15.0845 8.34701 15.1812 8.3871C15.278 8.42718 15.3659 8.48593 15.44 8.56C15.5141 8.63407 15.5728 8.72199 15.6129 8.81877C15.653 8.91554 15.6736 9.01926 15.6736 9.124C15.6736 9.22874 15.653 9.33246 15.6129 9.42923C15.5728 9.52601 15.5141 9.61393 15.44 9.688L13.128 12L15.44 14.312C15.744 14.616 15.744 15.128 15.44 15.44Z" fill="#9090A0"/>
</svg>
