<svg width="235" height="38" viewBox="0 0 235 38" fill="none" xmlns="http://www.w3.org/2000/svg">
<path d="M37.5107 14.998C37.5107 7.09621 31.1029 0.688477 23.2011 0.688477C15.2993 0.688477 9.52284 6.48768 8.94156 13.8582C4.5229 13.9127 0.958008 17.3504 0.958008 21.5829C0.958008 25.8153 4.49566 29.2258 8.8916 29.3076H37.5152L33.8504 24.5619C36.1256 22.0279 37.5152 18.6764 37.5152 15.0026L37.5107 14.998Z" fill="white"/>
<path d="M88.273 16.7618C89.0359 15.4539 90.1031 14.4231 91.4609 13.6692C92.8233 12.9154 94.3583 12.543 96.0703 12.543C97.7824 12.543 99.3037 12.9199 100.643 13.6692C101.979 14.4231 103.018 15.4448 103.754 16.7436C104.494 18.0424 104.862 19.4911 104.862 21.0987C104.862 22.7063 104.494 24.1641 103.754 25.4765C103.014 26.7844 101.969 27.8153 100.621 28.5691C99.2719 29.323 97.7279 29.6999 95.9931 29.6999C94.2584 29.6999 92.7915 29.3411 91.4428 28.6281C90.094 27.9152 89.0359 26.9115 88.273 25.6127C87.5055 24.3185 87.124 22.8108 87.124 21.0987C87.124 19.5184 87.5055 18.0697 88.273 16.7618ZM91.4609 23.9415C91.9151 24.7998 92.5372 25.472 93.3274 25.9624C94.1176 26.4574 94.994 26.7026 95.9523 26.7026C97.4554 26.7026 98.6997 26.1713 99.6852 25.1087C100.671 24.046 101.166 22.7245 101.166 21.1396C101.166 19.5547 100.675 18.2286 99.6852 17.1524C98.6952 16.0761 97.4554 15.5357 95.9523 15.5357C94.9668 15.5357 94.0858 15.79 93.3047 16.2941C92.5281 16.7981 91.9105 17.4793 91.4564 18.3376C91.0023 19.1959 90.7752 20.1269 90.7752 21.1396C90.7752 22.1523 91.0023 23.0833 91.4564 23.9415H91.4609Z" fill="white"/>
<path d="M125.409 13.9253C126.394 14.8199 126.898 15.9825 126.925 17.4084V29.3111H123.27V18.6527C123.215 17.7445 122.943 17.0315 122.452 16.5138C121.957 15.9961 121.222 15.7236 120.236 15.6964C118.81 15.6964 117.629 16.2686 116.694 17.4084C115.758 18.5483 115.295 20.0015 115.295 21.7635V29.3111H111.676V13.2032H114.945L115.177 16.314C115.749 15.1469 116.603 14.2341 117.743 13.571C118.883 12.908 120.195 12.5811 121.671 12.5811C123.147 12.5811 124.419 13.0306 125.404 13.9253H125.409Z" fill="white"/>
<path d="M152.131 13.2014V29.4228C152.131 30.9033 151.754 32.2384 151.005 33.4282C150.251 34.6226 149.184 35.5672 147.794 36.2665C146.405 36.9659 144.779 37.3155 142.913 37.3155C141.278 37.3155 139.87 37.0431 138.694 36.4981C137.513 35.9532 136.328 35.1494 135.133 34.0867L137.272 31.5981C138.153 32.4291 139.034 33.0558 139.915 33.4827C140.796 33.9096 141.768 34.123 142.835 34.123C144.625 34.123 146.005 33.6961 146.977 32.8378C147.949 31.9795 148.448 30.8261 148.476 29.3774L148.517 26.3438C147.922 27.3565 147.045 28.1649 145.892 28.7734C144.738 29.3819 143.408 29.6862 141.904 29.6862C140.401 29.6862 139.066 29.3093 137.822 28.5554C136.578 27.8016 135.583 26.7798 134.847 25.481C134.107 24.1867 133.739 22.7471 133.739 21.1622C133.739 19.5773 134.121 18.056 134.888 16.7481C135.651 15.4402 136.682 14.4094 137.981 13.6555C139.28 12.9017 140.665 12.5293 142.145 12.5293C143.521 12.5293 144.793 12.8018 145.96 13.3467C147.127 13.8917 147.994 14.591 148.566 15.4493L148.839 13.1923H152.145L152.131 13.2014ZM146.527 25.5718C147.54 24.818 148.199 23.8325 148.512 22.6155V19.4275C148.149 18.2604 147.463 17.3203 146.45 16.6074C145.438 15.8944 144.27 15.5356 142.949 15.5356C141.369 15.5356 140.043 16.0533 138.98 17.0933C137.917 18.1287 137.386 19.4547 137.386 21.0623C137.386 22.0977 137.631 23.0469 138.126 23.9006C138.617 24.7589 139.293 25.4356 140.147 25.9442C141.005 26.4483 141.936 26.7026 142.949 26.7026C144.325 26.7026 145.515 26.3257 146.527 25.5764V25.5718Z" fill="white"/>
<path d="M159.176 15.1856C159.589 14.7724 160.07 14.5635 160.615 14.5635C161.106 14.5635 161.56 14.7724 161.978 15.1856C162.391 15.5989 162.6 16.0939 162.6 16.6661C162.6 17.2383 162.391 17.756 161.978 18.1465C161.565 18.5371 161.11 18.7324 160.615 18.7324C160.07 18.7324 159.589 18.5371 159.176 18.1465C158.763 17.756 158.554 17.2655 158.554 16.6661C158.554 16.0666 158.763 15.6034 159.176 15.1856ZM159.176 25.7668C159.589 25.3535 160.07 25.1446 160.615 25.1446C161.106 25.1446 161.56 25.3535 161.978 25.7668C162.391 26.18 162.6 26.675 162.6 27.2472C162.6 27.8194 162.391 28.3371 161.978 28.7277C161.565 29.1182 161.11 29.3135 160.615 29.3135C160.07 29.3135 159.589 29.1182 159.176 28.7277C158.763 28.3371 158.554 27.8467 158.554 27.2472C158.554 26.6478 158.763 26.1846 159.176 25.7668Z" fill="white"/>
<path d="M170.399 29.0374C169.323 28.6242 168.447 28.0156 167.774 27.2073L169.332 25.1047C169.981 25.7268 170.663 26.2082 171.376 26.5443C172.089 26.8803 172.797 27.0484 173.496 27.0484C174.355 27.0484 175.054 26.8803 175.599 26.5443C176.144 26.2082 176.416 25.6905 176.416 24.9866C176.416 24.4417 176.248 24.0012 175.912 23.6651C175.576 23.3291 175.19 23.0838 174.763 22.9249C174.337 22.7659 173.614 22.5343 172.606 22.2255C169.859 21.3445 168.483 19.7732 168.483 17.5162C168.483 16.1675 168.982 15.014 169.981 14.0558C170.981 13.0976 172.375 12.6162 174.164 12.6162C175.304 12.6162 176.317 12.757 177.198 13.0431C178.079 13.3292 178.896 13.7833 179.65 14.4055L178.21 16.6216C177.797 16.1811 177.27 15.8314 176.634 15.5726C175.999 15.3137 175.395 15.1729 174.827 15.1457C174.1 15.1457 173.478 15.3228 172.961 15.6725C172.443 16.0222 172.184 16.4945 172.184 17.0939C172.184 17.5889 172.352 17.9931 172.688 18.32C173.024 18.647 173.374 18.8786 173.737 19.0194C174.1 19.1602 174.813 19.4009 175.876 19.7415C177.198 20.182 178.228 20.7542 178.969 21.4535C179.709 22.1529 180.077 23.102 180.077 24.2918C180.077 25.8495 179.532 27.1301 178.442 28.1428C177.352 29.1555 175.808 29.6596 173.814 29.6596C172.62 29.6596 171.485 29.4507 170.408 29.0374H170.399Z" fill="white"/>
<path d="M197.346 25.1872L199.017 27.8711C198.163 28.4433 197.232 28.8883 196.233 29.2153C195.234 29.5377 194.267 29.7012 193.336 29.7012C191.547 29.7012 189.984 29.3334 188.649 28.5931C187.314 27.8529 186.283 26.8357 185.557 25.5414C184.83 24.2471 184.467 22.7803 184.467 21.1454C184.467 19.5106 184.862 18.1164 185.652 16.8085C186.442 15.5007 187.528 14.4607 188.899 13.6978C190.275 12.9348 191.778 12.5488 193.413 12.5488C195.516 12.5488 197.269 13.1664 198.686 14.3971C200.098 15.6278 201.065 17.349 201.583 19.5515L188.822 24.0246C189.29 24.8284 189.916 25.4597 190.711 25.9138C191.501 26.3679 192.405 26.595 193.413 26.595C194.762 26.595 196.07 26.1272 197.341 25.1963L197.346 25.1872ZM189.489 16.9766C188.531 18.012 188.05 19.338 188.05 20.9456C188.05 21.3362 188.063 21.6314 188.091 21.8403L197.468 18.3798C197.078 17.4988 196.528 16.7858 195.815 16.2409C195.102 15.6959 194.212 15.4235 193.15 15.4235C191.669 15.4235 190.452 15.9412 189.494 16.9811L189.489 16.9766Z" fill="white"/>
<path d="M223.376 13.2031V29.3109H219.757V26.6634C219.185 27.4172 218.358 28.1075 217.268 28.7433C216.179 29.3791 214.948 29.697 213.572 29.697C212.041 29.697 210.661 29.3654 209.43 28.7024C208.2 28.0394 207.223 27.0766 206.51 25.8051C205.797 24.5335 205.438 23.0168 205.438 21.2547C205.438 19.4927 205.806 17.9532 206.547 16.6453C207.287 15.3375 208.286 14.3248 209.544 13.6118C210.802 12.8988 212.196 12.54 213.726 12.54C215.102 12.54 216.292 12.8398 217.305 13.4347C218.318 14.0296 219.135 14.8107 219.757 15.7689L220.03 13.2031H223.376ZM217.95 25.5962C218.894 24.856 219.498 23.8523 219.757 22.5808V19.3928C219.444 18.253 218.799 17.3265 217.813 16.609C216.828 15.896 215.697 15.5373 214.43 15.5373C213.472 15.5373 212.582 15.7689 211.764 16.2366C210.947 16.7044 210.298 17.3583 209.821 18.203C209.339 19.0477 209.103 20.0013 209.103 21.064C209.103 22.1267 209.349 23.0485 209.844 23.9023C210.334 24.7606 210.997 25.4372 211.828 25.9459C212.659 26.4499 213.567 26.7043 214.553 26.7043C215.874 26.7043 217.01 26.3364 217.959 25.5962H217.95Z" fill="white"/>
<path d="M234.042 0.686523V29.3101H230.423V0.686523H234.042Z" fill="white"/>
<path d="M79.3837 0.685547V29.3092H75.6508V10.304L65.3013 25.3719H65.2241L55.0698 10.8126V29.3137H51.4141V0.690086H52.2542L65.3058 19.5L78.5527 0.690086H79.3928L79.3837 0.685547Z" fill="white"/>
</svg>
