<svg width="150" height="150" viewBox="0 0 150 150" fill="none" xmlns="http://www.w3.org/2000/svg">
<path d="M89.8339 63.5659C89.8339 78.9756 77.3418 91.4676 61.9321 91.4676C46.5223 91.4676 34.0303 78.9756 34.0303 63.5659C34.0303 48.1561 46.5223 35.6641 61.9321 35.6641C77.3418 35.6641 89.8339 48.1561 89.8339 63.5659Z" stroke="#9090A0" stroke-width="3" stroke-miterlimit="10"/>
<g filter="url(#filter0_b_4045_60094)">
<mask id="path-3-inside-1_4045_60094" fill="white">
<path fill-rule="evenodd" clip-rule="evenodd" d="M124.003 83.1667C124.003 101.209 109.376 115.835 91.3338 115.835C91.2337 115.835 91.1336 115.835 91.0336 115.834C90.9502 115.835 90.8666 115.835 90.7831 115.835H52.6833C37.9854 115.835 25.9971 104.095 25.9971 89.7002C25.9971 75.3059 37.9854 63.5653 52.6833 63.5653H65.1967C71.1568 55.6305 80.6459 50.498 91.3338 50.498C109.376 50.498 124.003 65.1243 124.003 83.1667Z"/>
</mask>
<path fill-rule="evenodd" clip-rule="evenodd" d="M124.003 83.1667C124.003 101.209 109.376 115.835 91.3338 115.835C91.2337 115.835 91.1336 115.835 91.0336 115.834C90.9502 115.835 90.8666 115.835 90.7831 115.835H52.6833C37.9854 115.835 25.9971 104.095 25.9971 89.7002C25.9971 75.3059 37.9854 63.5653 52.6833 63.5653H65.1967C71.1568 55.6305 80.6459 50.498 91.3338 50.498C109.376 50.498 124.003 65.1243 124.003 83.1667Z" fill="#21212F"/>
<path d="M91.0336 115.834L91.0606 112.834L91.0335 112.834L91.0064 112.834L91.0336 115.834ZM65.1967 63.5653V66.5653H66.6953L67.5954 65.367L65.1967 63.5653ZM91.3338 118.835C111.033 118.835 127.003 102.866 127.003 83.1667H121.003C121.003 99.5522 107.719 112.835 91.3338 112.835V118.835ZM91.0066 118.834C91.1156 118.835 91.2247 118.835 91.3338 118.835V112.835C91.2426 112.835 91.1516 112.835 91.0606 112.834L91.0066 118.834ZM91.0064 112.834C90.932 112.835 90.8575 112.835 90.7831 112.835V118.835C90.8758 118.835 90.9683 118.835 91.0607 118.834L91.0064 112.834ZM90.7831 112.835H52.6833V118.835H90.7831V112.835ZM52.6833 112.835C39.5829 112.835 28.9971 102.379 28.9971 89.7002H22.9971C22.9971 105.81 36.3878 118.835 52.6833 118.835V112.835ZM28.9971 89.7002C28.9971 77.0215 39.5829 66.5653 52.6833 66.5653V60.5653C36.3878 60.5653 22.9971 73.5903 22.9971 89.7002H28.9971ZM52.6833 66.5653H65.1967V60.5653H52.6833V66.5653ZM91.3338 47.498C79.6625 47.498 69.3004 53.1069 62.798 61.7635L67.5954 65.367C73.0133 58.1542 81.6294 53.498 91.3338 53.498V47.498ZM127.003 83.1667C127.003 63.4675 111.033 47.498 91.3338 47.498V53.498C107.719 53.498 121.003 66.7812 121.003 83.1667H127.003Z" fill="#9090A0" mask="url(#path-3-inside-1_4045_60094)"/>
</g>
<defs>
<filter id="filter0_b_4045_60094" x="15.9971" y="40.498" width="118.006" height="85.3369" filterUnits="userSpaceOnUse" color-interpolation-filters="sRGB">
<feFlood flood-opacity="0" result="BackgroundImageFix"/>
<feGaussianBlur in="BackgroundImage" stdDeviation="5"/>
<feComposite in2="SourceAlpha" operator="in" result="effect1_backgroundBlur_4045_60094"/>
<feBlend mode="normal" in="SourceGraphic" in2="effect1_backgroundBlur_4045_60094" result="shape"/>
</filter>
</defs>
</svg>
