<svg width="150" height="150" viewBox="0 0 150 150" fill="none" xmlns="http://www.w3.org/2000/svg">
<rect width="150" height="150" rx="8" fill="#191925"/>
<g opacity="0.8">
<path d="M79 71C79 75.4183 75.4183 79 71 79C66.5817 79 63 75.4183 63 71C63 66.5817 66.5817 63 71 63C75.4183 63 79 66.5817 79 71Z" stroke="#9090A0" stroke-width="2" stroke-miterlimit="10"/>
<g filter="url(#filter0_b_2462_39143)">
<mask id="path-3-inside-1_2462_39143" fill="white">
<path fill-rule="evenodd" clip-rule="evenodd" d="M90 77C90 82.5228 85.5228 87 80 87C79.9705 87 79.941 86.9999 79.9116 86.9996C79.8848 86.9999 79.8581 87 79.8312 87H68.1688C63.6697 87 60 83.4062 60 79C60 74.5938 63.6697 71 68.1688 71H71.9993C73.8237 68.5711 76.7284 67 80 67C85.5228 67 90 71.4772 90 77Z"/>
</mask>
<path fill-rule="evenodd" clip-rule="evenodd" d="M90 77C90 82.5228 85.5228 87 80 87C79.9705 87 79.941 86.9999 79.9116 86.9996C79.8848 86.9999 79.8581 87 79.8312 87H68.1688C63.6697 87 60 83.4062 60 79C60 74.5938 63.6697 71 68.1688 71H71.9993C73.8237 68.5711 76.7284 67 80 67C85.5228 67 90 71.4772 90 77Z" fill="#21212F"/>
<path d="M79.9116 86.9996L79.929 84.9997L79.9107 84.9995L79.8925 84.9997L79.9116 86.9996ZM71.9993 71V73H72.9984L73.5984 72.2012L71.9993 71ZM80 89C86.6274 89 92 83.6274 92 77H88C88 81.4183 84.4183 85 80 85V89ZM79.8942 88.9995C79.9295 88.9998 79.9647 89 80 89V85C79.9763 85 79.9526 84.9999 79.929 84.9997L79.8942 88.9995ZM79.8925 84.9997C79.8721 84.9999 79.8517 85 79.8312 85V89C79.8644 89 79.8976 88.9998 79.9307 88.9995L79.8925 84.9997ZM79.8312 85H68.1688V89H79.8312V85ZM68.1688 85C64.7347 85 62 82.2624 62 79H58C58 84.5499 62.6047 89 68.1688 89V85ZM62 79C62 75.7376 64.7347 73 68.1688 73V69C62.6047 69 58 73.4501 58 79H62ZM68.1688 73H71.9993V69H68.1688V73ZM80 65C76.0727 65 72.586 66.8887 70.4001 69.7988L73.5984 72.2012C75.0613 70.2535 77.384 69 80 69V65ZM92 77C92 70.3726 86.6274 65 80 65V69C84.4183 69 88 72.5817 88 77H92Z" fill="#9090A0" mask="url(#path-3-inside-1_2462_39143)"/>
</g>
</g>
<defs>
<filter id="filter0_b_2462_39143" x="50" y="57" width="50" height="40" filterUnits="userSpaceOnUse" color-interpolation-filters="sRGB">
<feFlood flood-opacity="0" result="BackgroundImageFix"/>
<feGaussianBlur in="BackgroundImage" stdDeviation="5"/>
<feComposite in2="SourceAlpha" operator="in" result="effect1_backgroundBlur_2462_39143"/>
<feBlend mode="normal" in="SourceGraphic" in2="effect1_backgroundBlur_2462_39143" result="shape"/>
</filter>
</defs>
</svg>
