<svg width="335" height="56" viewBox="0 0 335 56" fill="none" xmlns="http://www.w3.org/2000/svg">
<rect width="335" height="56" rx="8" fill="white"/>
<path d="M125.35 29.485L125.8 28C126.16 26.8 126.505 25.585 126.82 24.325H126.88C127.225 25.57 127.555 26.8 127.93 28L128.365 29.485H125.35ZM129.715 34H131.56L127.9 22.96H125.89L122.23 34H124L124.945 30.85H128.785L129.715 34ZM132.866 37.345H134.576V34.675L134.531 33.265C135.236 33.865 135.971 34.195 136.706 34.195C138.566 34.195 140.261 32.575 140.261 29.74C140.261 27.205 139.091 25.54 136.991 25.54C136.076 25.54 135.176 26.05 134.456 26.65H134.411L134.276 25.75H132.866V37.345ZM136.376 32.77C135.866 32.77 135.221 32.575 134.576 32.02V27.985C135.281 27.31 135.896 26.98 136.541 26.98C137.921 26.98 138.476 28.045 138.476 29.77C138.476 31.705 137.576 32.77 136.376 32.77ZM142.314 37.345H144.024V34.675L143.979 33.265C144.684 33.865 145.419 34.195 146.154 34.195C148.014 34.195 149.709 32.575 149.709 29.74C149.709 27.205 148.539 25.54 146.439 25.54C145.524 25.54 144.624 26.05 143.904 26.65H143.859L143.724 25.75H142.314V37.345ZM145.824 32.77C145.314 32.77 144.669 32.575 144.024 32.02V27.985C144.729 27.31 145.344 26.98 145.989 26.98C147.369 26.98 147.924 28.045 147.924 29.77C147.924 31.705 147.024 32.77 145.824 32.77ZM153.473 34.195C153.893 34.195 154.193 34.135 154.403 34.06L154.178 32.755C154.028 32.785 153.968 32.785 153.893 32.785C153.683 32.785 153.473 32.62 153.473 32.155V22.045H151.763V32.065C151.763 33.4 152.228 34.195 153.473 34.195ZM159.665 34.195C160.745 34.195 161.69 33.835 162.455 33.325L161.855 32.23C161.255 32.62 160.625 32.845 159.89 32.845C158.465 32.845 157.475 31.9 157.34 30.325H162.695C162.74 30.13 162.77 29.785 162.77 29.455C162.77 27.115 161.6 25.54 159.41 25.54C157.475 25.54 155.645 27.205 155.645 29.89C155.645 32.605 157.43 34.195 159.665 34.195ZM157.325 29.14C157.49 27.685 158.405 26.89 159.44 26.89C160.64 26.89 161.285 27.715 161.285 29.14H157.325ZM171.057 32.29V29.98H175.287V28.735H167.172V26.845H174.987V22.555H165.627V23.8H173.457V25.615H165.657V29.98H169.512V32.29H164.172V33.565H176.442V32.29H171.057ZM186.335 22.735H184.79V24.955C184.79 27.565 183.38 30.16 181.22 31.135L182.135 32.425C183.77 31.63 184.97 30.025 185.585 28.06C186.2 29.89 187.385 31.39 188.945 32.125L189.845 30.895C187.715 29.935 186.335 27.445 186.335 24.955V22.735ZM190.925 21.595V35.185H192.485V21.595H190.925ZM203.104 28.045C201.034 27.355 199.894 25.69 199.894 23.98V23.74H202.729V22.48H195.454V23.74H198.334V23.98C198.334 25.84 197.149 27.565 195.004 28.285L195.814 29.5C197.404 28.945 198.529 27.835 199.129 26.41C199.714 27.7 200.794 28.735 202.309 29.23L203.104 28.045ZM196.804 31.675H204.169V35.155H205.714V30.43H196.804V31.675ZM207.634 25.06H205.714V21.595H204.169V29.77H205.714V26.335H207.634V25.06ZM212.882 30.97C211.787 30.97 210.992 30.22 210.992 29.08C210.992 27.94 211.787 27.19 212.882 27.19C213.977 27.19 214.772 27.94 214.772 29.08C214.772 30.22 213.977 30.97 212.882 30.97ZM212.882 25.915C210.932 25.915 209.522 27.235 209.522 29.08C209.522 30.94 210.932 32.245 212.882 32.245C214.817 32.245 216.242 30.94 216.242 29.08C216.242 27.235 214.817 25.915 212.882 25.915ZM213.632 21.805H212.087V23.695H208.862V24.955H216.797V23.695H213.632V21.805ZM221.537 27.055H219.452V21.61H217.892V35.17H219.452V28.345H221.537V27.055ZM223.501 23.035V24.295H228.331C228.061 27.415 226.381 29.8 222.826 31.51L223.651 32.74C228.301 30.49 229.921 27.07 229.921 23.035H223.501ZM232.366 21.61V35.155H233.911V21.61H232.366Z" fill="black"/>
<path d="M50 6H6V50H50V6Z" fill="white"/>
<path d="M28.2227 20.3846C29.0547 20.3846 30.0977 19.8048 30.7188 19.0318C31.2812 18.3312 31.6914 17.3528 31.6914 16.3744C31.6914 16.2416 31.6797 16.1087 31.6562 16C30.7305 16.0362 29.6172 16.6402 28.9492 17.4495C28.4219 18.0655 27.9414 19.0318 27.9414 20.0223C27.9414 20.1672 27.9648 20.3121 27.9766 20.3605C28.0352 20.3725 28.1289 20.3846 28.2227 20.3846ZM25.293 35C26.4297 35 26.9336 34.2149 28.3516 34.2149C29.793 34.2149 30.1094 34.9758 31.375 34.9758C32.6172 34.9758 33.4492 33.7921 34.2344 32.6325C35.1133 31.3039 35.4766 29.9994 35.5 29.939C35.418 29.9148 33.0391 28.9123 33.0391 26.0979C33.0391 23.658 34.9141 22.5588 35.0195 22.4743C33.7773 20.6383 31.8906 20.59 31.375 20.59C29.9805 20.59 28.8438 21.4596 28.1289 21.4596C27.3555 21.4596 26.3359 20.6383 25.1289 20.6383C22.832 20.6383 20.5 22.595 20.5 26.2912C20.5 28.5861 21.3672 31.014 22.4336 32.5842C23.3477 33.9129 24.1445 35 25.293 35Z" fill="black"/>
</svg>
