<svg width="336" height="56" viewBox="0 0 336 56" fill="none" xmlns="http://www.w3.org/2000/svg">
<rect x="0.25" width="335" height="56" rx="8" fill="#FEE500"/>
<path d="M130.701 20.9375H122.713V22.4414H128.836C128.768 23.4375 128.621 24.3848 128.357 25.2832L121.795 25.7227L122.068 27.3242L127.781 26.7871C126.746 29.0039 124.861 30.8887 121.697 32.4414L122.713 33.8281C129.1 30.6836 130.682 26.1035 130.701 20.9375ZM133.377 36.6406H135.232V27.6758H137.947V26.1523H135.232V19.1602H133.377V36.6406ZM147.986 20.9375H139.998V22.4414H146.121C146.053 23.4375 145.906 24.3848 145.643 25.2832L139.08 25.7227L139.354 27.3242L145.066 26.7871C144.031 29.0039 142.146 30.8887 138.982 32.4414L139.998 33.8281C146.385 30.6836 147.967 26.1035 147.986 20.9375ZM150.662 36.6406H152.518V27.6758H155.232V26.1523H152.518V19.1602H150.662V36.6406ZM164.139 20.2148C160.418 20.2246 157.684 22.0703 157.693 24.8633C157.684 27.4805 159.979 29.2285 163.221 29.4922V32.9297H156.17V34.4727H172.186V32.9297H165.057V29.4922C168.318 29.2285 170.604 27.4805 170.604 24.8633C170.604 22.0703 167.879 20.2246 164.139 20.2148ZM159.49 24.8633C159.49 22.9688 161.443 21.7188 164.139 21.7383C166.854 21.7188 168.797 22.9688 168.807 24.8633C168.797 26.8262 166.854 28.0469 164.139 28.0664C161.443 28.0469 159.49 26.8262 159.49 24.8633ZM189.471 33.0078H182.342V29.9414H187.928V28.418H177.244V25.8594H187.518V20.3906H175.369V21.9141H185.682V24.375H175.408V29.9414H180.506V33.0078H173.455V34.5703H189.471V33.0078ZM211.639 33.0078H204.51V29.9414H210.096V28.418H199.412V25.8594H209.686V20.3906H197.537V21.9141H207.85V24.375H197.576V29.9414H202.674V33.0078H195.623V34.5703H211.639V33.0078ZM226.775 20.9375H214.627V22.4609H224.939V22.8125C224.939 25.0195 224.939 27.5879 224.236 31.0938L226.131 31.2695C226.775 27.5293 226.775 25.0781 226.775 22.8125V20.9375ZM212.908 34.1797H228.865V32.6367H212.908V34.1797ZM244.705 19.1797H242.85V31.8945H244.705V19.1797ZM230.545 24.6875C230.555 27.2559 232.566 29.043 235.213 29.043C237.85 29.043 239.861 27.2559 239.861 24.6875C239.861 22.1582 237.85 20.3613 235.213 20.3516C232.566 20.3613 230.555 22.1582 230.545 24.6875ZM232.361 24.6875C232.352 23.0762 233.582 21.9727 235.213 21.9727C236.814 21.9727 238.045 23.0762 238.045 24.6875C238.045 26.3379 236.814 27.4219 235.213 27.4219C233.582 27.4219 232.352 26.3379 232.361 24.6875ZM233.26 36.2891H245.232V34.7852H235.135V30.6055H233.26V36.2891Z" fill="black"/>
<g clip-path="url(#clip0_2780_39449)">
<path opacity="0.85" d="M101.621 20C96.9461 20 93.1211 22.8492 93.1211 26.389C93.1211 28.5475 94.5661 30.4469 96.7761 31.5693L96.0961 35.4545L100.516 32.6054C100.856 32.6054 101.196 32.6917 101.621 32.6917C106.296 32.6917 110.121 29.8426 110.121 26.3027C110.121 22.8492 106.296 20 101.621 20Z" fill="black"/>
</g>
<defs>
<clipPath id="clip0_2780_39449">
<rect width="17" height="15.4545" fill="white" transform="translate(93.1211 20)"/>
</clipPath>
</defs>
</svg>
