<svg width="28" height="30" viewBox="0 0 28 30" fill="none" xmlns="http://www.w3.org/2000/svg">
<g filter="url(#filter0_d_168_572)">
<path d="M16.9805 4.52547C17.3711 4.13494 17.3711 3.50178 16.9805 3.11125C16.59 2.72073 15.9569 2.72073 15.5663 3.11125L16.9805 4.52547ZM8.27344 11.8184L7.56633 11.1113C7.17581 11.5018 7.17581 12.1349 7.56633 12.5255L8.27344 11.8184ZM15.5663 20.5255C15.9569 20.916 16.59 20.916 16.9805 20.5255C17.3711 20.1349 17.3711 19.5018 16.9805 19.1113L15.5663 20.5255ZM15.5663 3.11125L7.56633 11.1113L8.98054 12.5255L16.9805 4.52547L15.5663 3.11125ZM7.56633 12.5255L15.5663 20.5255L16.9805 19.1113L8.98054 11.1113L7.56633 12.5255Z" fill="#E5E5EA"/>
</g>
<defs>
<filter id="filter0_d_168_572" x="-2" y="0" width="32" height="32" filterUnits="userSpaceOnUse" color-interpolation-filters="sRGB">
<feFlood flood-opacity="0" result="BackgroundImageFix"/>
<feColorMatrix in="SourceAlpha" type="matrix" values="0 0 0 0 0 0 0 0 0 0 0 0 0 0 0 0 0 0 127 0" result="hardAlpha"/>
<feOffset dy="4"/>
<feGaussianBlur stdDeviation="2"/>
<feComposite in2="hardAlpha" operator="out"/>
<feColorMatrix type="matrix" values="0 0 0 0 0 0 0 0 0 0 0 0 0 0 0 0 0 0 0.25 0"/>
<feBlend mode="normal" in2="BackgroundImageFix" result="effect1_dropShadow_168_572"/>
<feBlend mode="normal" in="SourceGraphic" in2="effect1_dropShadow_168_572" result="shape"/>
</filter>
</defs>
</svg>
