<svg width="335" height="56" viewBox="0 0 335 56" fill="none" xmlns="http://www.w3.org/2000/svg">
<rect width="335" height="56" rx="8" fill="#FEE500"/>
<path d="M128.345 23.915V24.095C128.345 27.875 127.145 30.74 122.84 32.885L123.695 34.085C128.69 31.58 129.875 27.995 129.875 23.915H128.345ZM123.635 23.915V25.175H129.275V23.915H123.635ZM128.255 27.29L122.93 27.635L123.155 29L128.255 28.505V27.29ZM131.855 22.52V36.23H133.43V22.52H131.855ZM133.01 27.95V29.24H135.485V27.95H133.01ZM142.144 23.915V24.095C142.144 27.875 140.944 30.74 136.639 32.885L137.494 34.085C142.489 31.58 143.674 27.995 143.674 23.915H142.144ZM137.434 23.915V25.175H143.074V23.915H137.434ZM142.054 27.29L136.729 27.635L136.954 29L142.054 28.505V27.29ZM145.654 22.52V36.23H147.229V22.52H145.654ZM146.809 27.95V29.24H149.284V27.95H146.809ZM155.808 30.26V33.545H157.368V30.26H155.808ZM156.588 23.345C153.693 23.345 151.548 24.8 151.548 27.02C151.548 29.255 153.693 30.695 156.588 30.695C159.498 30.695 161.628 29.255 161.628 27.02C161.628 24.8 159.498 23.345 156.588 23.345ZM156.588 24.59C158.643 24.59 160.098 25.535 160.098 27.02C160.098 28.52 158.643 29.45 156.588 29.45C154.548 29.45 153.078 28.52 153.078 27.02C153.078 25.535 154.548 24.59 156.588 24.59ZM150.408 33.275V34.565H162.828V33.275H150.408ZM164.207 33.35V34.64H176.627V33.35H164.207ZM169.607 30.56V33.875H171.167V30.56H169.607ZM165.662 23.495V24.755H173.582V26.585H165.692V30.38H167.252V27.83H175.142V23.495H165.662ZM165.692 29.735V31.01H175.457V29.735H165.692ZM184.855 23.66V25.91C184.855 28.535 183.445 31.175 181.255 32.165L182.2 33.47C184.66 32.27 186.145 29.225 186.145 25.91V23.66H184.855ZM185.155 23.66V25.91C185.155 29.105 186.64 32.03 189.055 33.17L189.985 31.91C187.825 30.95 186.43 28.43 186.43 25.91V23.66H185.155ZM191.08 22.52V36.26H192.655V22.52H191.08ZM198.398 23.945V24.935C198.398 26.795 197.198 28.565 195.038 29.3L195.863 30.515C198.293 29.69 199.688 27.485 199.688 24.935V23.945H198.398ZM198.698 23.945V24.935C198.698 27.335 200.033 29.45 202.433 30.26L203.228 29.03C201.128 28.34 199.973 26.66 199.973 24.935V23.945H198.698ZM195.488 23.42V24.695H202.853V23.42H195.488ZM204.293 22.535V30.785H205.868V22.535H204.293ZM205.433 26.015V27.32H207.803V26.015H205.433ZM196.853 31.46V32.735H204.293V36.245H205.868V31.46H196.853ZM218.032 22.535V36.245H219.592V22.535H218.032ZM219.232 28.04V29.345H221.722V28.04H219.232ZM208.897 24.65V25.91H216.937V24.65H208.897ZM212.962 26.9C210.997 26.9 209.557 28.22 209.557 30.095C209.557 31.985 210.997 33.305 212.962 33.305C214.912 33.305 216.352 31.985 216.352 30.095C216.352 28.22 214.912 26.9 212.962 26.9ZM212.962 28.19C214.057 28.19 214.852 28.94 214.852 30.095C214.852 31.25 214.057 32.015 212.962 32.015C211.852 32.015 211.057 31.25 211.057 30.095C211.057 28.94 211.852 28.19 212.962 28.19ZM212.152 22.73V25.175H213.727V22.73H212.152ZM232.506 22.535V36.245H234.081V22.535H232.506ZM228.486 23.99V24.26C228.486 27.92 226.821 30.635 222.876 32.54L223.701 33.8C228.411 31.505 230.031 28.055 230.031 23.99H228.486ZM223.551 23.99V25.25H229.191V23.99H223.551Z" fill="black" fill-opacity="0.85"/>
<path d="M50 6H6V50H50V6Z" fill="#FEE500"/>
<g clip-path="url(#clip0_386_20848)">
<path opacity="0.85" d="M28.5 20C23.825 20 20 22.8492 20 26.389C20 28.5475 21.445 30.4469 23.655 31.5693L22.975 35.4545L27.395 32.6054C27.735 32.6054 28.075 32.6917 28.5 32.6917C33.175 32.6917 37 29.8426 37 26.3027C37 22.8492 33.175 20 28.5 20Z" fill="black"/>
</g>
<defs>
<clipPath id="clip0_386_20848">
<rect width="17" height="15.4545" fill="white" transform="translate(20 20)"/>
</clipPath>
</defs>
</svg>
