<svg width="32" height="32" viewBox="0 0 32 32" fill="none" xmlns="http://www.w3.org/2000/svg">
<g filter="url(#filter0_d_168_606)">
<path d="M4 0H28V24H4V0Z" fill="white"/>
<path d="M8 6V22H24V6" stroke="#E5E5EA" stroke-width="2" stroke-linecap="round" stroke-linejoin="round"/>
<path d="M19 4L19 2L13 2L13 4" stroke="#E5E5EA" stroke-width="2" stroke-linecap="round" stroke-linejoin="round"/>
<path d="M13 18L13 10" stroke="#E5E5EA" stroke-width="2" stroke-linecap="round" stroke-linejoin="round"/>
<path d="M19 18L19 10" stroke="#E5E5EA" stroke-width="2" stroke-linecap="round" stroke-linejoin="round"/>
<path d="M6 5L26 5" stroke="#E5E5EA" stroke-width="2" stroke-linecap="round" stroke-linejoin="round"/>
<path d="M4 0V-1H3V0H4ZM28 0H29V-1H28V0ZM28 24V25H29V24H28ZM4 24H3V25H4V24ZM4 1H28V-1H4V1ZM27 0V24H29V0H27ZM28 23H4V25H28V23ZM5 24V0H3V24H5Z" fill="black"/>
</g>
<defs>
<filter id="filter0_d_168_606" x="0" y="0" width="32" height="32" filterUnits="userSpaceOnUse" color-interpolation-filters="sRGB">
<feFlood flood-opacity="0" result="BackgroundImageFix"/>
<feColorMatrix in="SourceAlpha" type="matrix" values="0 0 0 0 0 0 0 0 0 0 0 0 0 0 0 0 0 0 127 0" result="hardAlpha"/>
<feOffset dy="4"/>
<feGaussianBlur stdDeviation="2"/>
<feComposite in2="hardAlpha" operator="out"/>
<feColorMatrix type="matrix" values="0 0 0 0 0 0 0 0 0 0 0 0 0 0 0 0 0 0 0.25 0"/>
<feBlend mode="normal" in2="BackgroundImageFix" result="effect1_dropShadow_168_606"/>
<feBlend mode="normal" in="SourceGraphic" in2="effect1_dropShadow_168_606" result="shape"/>
</filter>
</defs>
</svg>
