<svg width="24" height="24" viewBox="0 0 24 24" fill="none" xmlns="http://www.w3.org/2000/svg">
<path d="M9.64645 17.6464C9.45118 17.8417 9.45118 18.1583 9.64645 18.3536C9.84171 18.5488 10.1583 18.5488 10.3536 18.3536L9.64645 17.6464ZM16 12L16.3536 12.3536C16.5488 12.1583 16.5488 11.8417 16.3536 11.6464L16 12ZM10.3536 5.64645C10.1583 5.45118 9.84171 5.45118 9.64645 5.64645C9.45119 5.84171 9.45119 6.15829 9.64645 6.35355L10.3536 5.64645ZM10.3536 18.3536L16.3536 12.3536L15.6464 11.6464L9.64645 17.6464L10.3536 18.3536ZM16.3536 11.6464L10.3536 5.64645L9.64645 6.35355L15.6464 12.3536L16.3536 11.6464Z" fill="#626273"/>
</svg>
