<svg width="24" height="24" viewBox="0 0 24 24" fill="none" xmlns="http://www.w3.org/2000/svg">
<path d="M9.142 21C7.48803 20.5119 5.99009 19.6089 4.794 18.3789C5.17884 17.9278 5.41874 17.3734 5.483 16.7868C5.54726 16.2002 5.43296 15.6079 5.15472 15.0858C4.87649 14.5638 4.44698 14.1356 3.92115 13.8562C3.39531 13.5767 2.79708 13.4587 2.203 13.5172C2.06766 12.862 1.99965 12.1949 2 11.5262C2 10.4934 2.16 9.49711 2.458 8.56115H2.5C3.00988 8.56131 3.51139 8.43303 3.95717 8.18842C4.40295 7.9438 4.7783 7.59093 5.04777 7.16312C5.31724 6.73531 5.47194 6.24668 5.49726 5.74337C5.52259 5.24005 5.4177 4.73866 5.1925 4.28654C6.3648 3.20767 7.78253 2.42342 9.326 2C9.57719 2.48745 9.95992 2.89673 10.4319 3.18253C10.9038 3.46834 11.4465 3.61954 12 3.61941C12.5535 3.61954 13.0962 3.46834 13.5681 3.18253C14.0401 2.89673 14.4228 2.48745 14.674 2C16.2175 2.42342 17.6352 3.20767 18.8075 4.28654C18.5807 4.74183 18.4759 5.24704 18.5031 5.75382C18.5304 6.2606 18.6888 6.75198 18.9632 7.18093C19.2376 7.60988 19.6188 7.96204 20.0703 8.2037C20.5219 8.44537 21.0286 8.56844 21.542 8.56115C21.8465 9.52069 22.0009 10.5206 22 11.5262C22 12.2082 21.93 12.8743 21.797 13.5172C21.2029 13.4587 20.6047 13.5767 20.0789 13.8562C19.553 14.1356 19.1235 14.5638 18.8453 15.0858C18.567 15.6079 18.4527 16.2002 18.517 16.7868C18.5813 17.3734 18.8212 17.9278 19.206 18.3789C18.0099 19.6089 16.512 20.5119 14.858 21C14.6638 20.4017 14.2824 19.8798 13.7687 19.5095C13.2551 19.1393 12.6357 18.9398 12 18.9398C11.3643 18.9398 10.7449 19.1393 10.2313 19.5095C9.71765 19.8798 9.33623 20.4017 9.142 21Z" stroke="#E5E5EA" stroke-linejoin="round"/>
<path d="M12 15C12.4596 15 12.9148 14.9095 13.3394 14.7336C13.764 14.5577 14.1499 14.2999 14.4749 13.9749C14.7999 13.6499 15.0577 13.264 15.2336 12.8394C15.4095 12.4148 15.5 11.9596 15.5 11.5C15.5 11.0404 15.4095 10.5852 15.2336 10.1606C15.0577 9.73597 14.7999 9.35013 14.4749 9.02513C14.1499 8.70012 13.764 8.44231 13.3394 8.26642C12.9148 8.09053 12.4596 8 12 8C11.0717 8 10.1815 8.36875 9.52513 9.02513C8.86875 9.6815 8.5 10.5717 8.5 11.5C8.5 12.4283 8.86875 13.3185 9.52513 13.9749C10.1815 14.6313 11.0717 15 12 15Z" stroke="#E5E5EA" stroke-linejoin="round"/>
</svg>
