<svg width="24" height="24" viewBox="0 0 24 24" fill="none" xmlns="http://www.w3.org/2000/svg">
<path d="M4 11V19C4 20.1046 4.89543 21 6 21H18C19.1046 21 20 20.1046 20 19V11" stroke="#E5E5EA" stroke-linecap="round" stroke-linejoin="round"/>
<path d="M15.6464 7.35355C15.8417 7.54882 16.1583 7.54882 16.3536 7.35355C16.5488 7.15829 16.5488 6.84171 16.3536 6.64645L15.6464 7.35355ZM12 3L12.3536 2.64645C12.1583 2.45118 11.8417 2.45118 11.6464 2.64645L12 3ZM7.64645 6.64645C7.45118 6.84171 7.45118 7.15829 7.64645 7.35355C7.84171 7.54882 8.15829 7.54882 8.35355 7.35355L7.64645 6.64645ZM16.3536 6.64645L12.3536 2.64645L11.6464 3.35355L15.6464 7.35355L16.3536 6.64645ZM11.6464 2.64645L7.64645 6.64645L8.35355 7.35355L12.3536 3.35355L11.6464 2.64645Z" fill="#E5E5EA"/>
<path d="M12 3L12 15" stroke="#E5E5EA" stroke-linecap="round" stroke-linejoin="round"/>
</svg>
