<svg width="24" height="24" viewBox="0 0 24 24" fill="none" xmlns="http://www.w3.org/2000/svg">
<path d="M4 13V21H20V13" stroke="#E5E5EA" stroke-width="2" stroke-linecap="round" stroke-linejoin="round"/>
<path d="M15.2929 7.70711C15.6834 8.09763 16.3166 8.09763 16.7071 7.70711C17.0976 7.31658 17.0976 6.68342 16.7071 6.29289L15.2929 7.70711ZM12 3L12.7071 2.29289C12.3166 1.90237 11.6834 1.90237 11.2929 2.29289L12 3ZM7.29289 6.29289C6.90237 6.68342 6.90237 7.31658 7.29289 7.70711C7.68342 8.09763 8.31658 8.09763 8.70711 7.70711L7.29289 6.29289ZM16.7071 6.29289L12.7071 2.29289L11.2929 3.70711L15.2929 7.70711L16.7071 6.29289ZM11.2929 2.29289L7.29289 6.29289L8.70711 7.70711L12.7071 3.70711L11.2929 2.29289Z" fill="#E5E5EA"/>
<path d="M12 3L12 17" stroke="#E5E5EA" stroke-width="2" stroke-linecap="round" stroke-linejoin="round"/>
</svg>
