<svg width="24" height="24" viewBox="0 0 24 24" fill="none" xmlns="http://www.w3.org/2000/svg">
<path d="M14.3536 6.35355C14.5488 6.15829 14.5488 5.84171 14.3536 5.64645C14.1583 5.45118 13.8417 5.45118 13.6464 5.64645L14.3536 6.35355ZM8 12L7.64645 11.6464C7.45118 11.8417 7.45118 12.1583 7.64645 12.3536L8 12ZM13.6464 18.3536C13.8417 18.5488 14.1583 18.5488 14.3536 18.3536C14.5488 18.1583 14.5488 17.8417 14.3536 17.6464L13.6464 18.3536ZM13.6464 5.64645L7.64645 11.6464L8.35355 12.3536L14.3536 6.35355L13.6464 5.64645ZM7.64645 12.3536L13.6464 18.3536L14.3536 17.6464L8.35355 11.6464L7.64645 12.3536Z" fill="#626273"/>
</svg>
