<svg width="24" height="24" viewBox="0 0 24 24" fill="none" xmlns="http://www.w3.org/2000/svg">
<path d="M6.35355 9.64645C6.15829 9.45118 5.84171 9.45118 5.64645 9.64645C5.45119 9.84171 5.45119 10.1583 5.64645 10.3536L6.35355 9.64645ZM12 16L11.6464 16.3536C11.8417 16.5488 12.1583 16.5488 12.3536 16.3536L12 16ZM18.3536 10.3536C18.5488 10.1583 18.5488 9.84171 18.3536 9.64645C18.1583 9.45119 17.8417 9.45119 17.6464 9.64645L18.3536 10.3536ZM5.64645 10.3536L11.6464 16.3536L12.3536 15.6464L6.35355 9.64645L5.64645 10.3536ZM12.3536 16.3536L18.3536 10.3536L17.6464 9.64645L11.6464 15.6464L12.3536 16.3536Z" fill="#626273"/>
</svg>
